<svg xmlns="http://www.w3.org/2000/svg" xmlns:xlink="http://www.w3.org/1999/xlink" width="0" height="0" style="position:absolute">

	<symbol id="mail" viewBox="0 0 267.8 248" >
			<path   d="M266.2,1c-1.2-1-2.9-1.3-4.3-0.6L2.3,121c-1.4,0.7-2.3,2-2.3,3.6c0,1.5,0.9,3,2.2,3.6l73.5,36.1
				c1.3,0.7,3,0.5,4.2-0.4l71.4-53.4l-56.1,57.7c-0.8,0.8-1.2,1.9-1.1,3.1l5.6,72.7c0.1,1.6,1.2,3,2.7,3.5c0.4,0.1,0.8,0.2,1.3,0.2
				c1.1,0,2.3-0.5,3-1.4l39-45.2l48.2,23c1,0.5,2.3,0.5,3.3,0.1c1.1-0.5,1.9-1.4,2.2-2.5l68-216.5C267.9,3.7,267.4,2,266.2,1L266.2,1
				z M266.2,1"/>
	</symbol>

</svg>