<?xml version="1.0" encoding="utf-8"?>
<!-- Generator: Adobe Illustrator 19.0.1, SVG Export Plug-In . SVG Version: 6.00 Build 0)  -->
<svg version="1.1" id="Слой_1" xmlns="http://www.w3.org/2000/svg" xmlns:xlink="http://www.w3.org/1999/xlink" x="0px" y="0px"
	 viewBox="0 0 595.3 841.9" style="enable-background:new 0 0 595.3 841.9;" xml:space="preserve">
<style type="text/css">
	.st0{clip-path:url(#SVGID_2_);}
</style>
<g>
	<g>
		<defs>
			<rect id="SVGID_1_" x="163" y="296.9" width="267.8" height="248"/>
		</defs>
		<clipPath id="SVGID_2_">
			<use xlink:href="#SVGID_1_"  style="overflow:visible;"/>
		</clipPath>
		<path class="st0" d="M429.2,297.9c-1.2-1-2.9-1.3-4.3-0.6L165.3,417.9c-1.4,0.7-2.3,2-2.3,3.6c0,1.5,0.9,3,2.2,3.6l73.5,36.1
			c1.3,0.7,3,0.5,4.2-0.4l71.4-53.4l-56.1,57.7c-0.8,0.8-1.2,1.9-1.1,3.1l5.6,72.7c0.1,1.6,1.2,3,2.7,3.5c0.4,0.1,0.8,0.2,1.3,0.2
			c1.1,0,2.3-0.5,3-1.4l39-45.2l48.2,23c1,0.5,2.3,0.5,3.3,0.1c1.1-0.5,1.9-1.4,2.2-2.5l68-216.5
			C430.9,300.6,430.4,298.9,429.2,297.9L429.2,297.9z M429.2,297.9"/>
	</g>
</g>
</svg>
